<svg width="32" height="32" viewBox="0 0 32 32" fill="none" xmlns="http://www.w3.org/2000/svg">
<rect width="32" height="32" rx="4" fill="#F2F2F2"/>
<path d="M20.5 5H12.5C11.837 5 11.2011 5.26339 10.7322 5.73223C10.2634 6.20107 10 6.83696 10 7.5V24.5C10 25.163 10.2634 25.7989 10.7322 26.2678C11.2011 26.7366 11.837 27 12.5 27H20.5C21.163 27 21.7989 26.7366 22.2678 26.2678C22.7366 25.7989 23 25.163 23 24.5V7.5C23 6.83696 22.7366 6.20107 22.2678 5.73223C21.7989 5.26339 21.163 5 20.5 5V5ZM16.5 26C15.67 26 15 25.33 15 24.5C15 23.67 15.67 23 16.5 23C17.33 23 18 23.67 18 24.5C18 25.33 17.33 26 16.5 26ZM21 22H12V8H21V22Z" fill="#ABABAB"/>
</svg>
