<svg width="94" height="20" viewBox="0 0 94 20" xmlns="http://www.w3.org/2000/svg">
  <path d="M4.63867 15.8828C4.63867 16.5469 4.82747 17.0286 5.20508 17.3281C5.58919 17.6276 6.14909 17.7839 6.88477 17.7969V19.1641C5.64779 19.151 4.69076 18.8678 4.01367 18.3145C3.33659 17.7611 2.99805 16.9831 2.99805 15.9805V13.0215C2.99805 12.3444 2.79297 11.8626 2.38281 11.5762C1.97266 11.2832 1.37695 11.1367 0.595703 11.1367V9.75977C1.44206 9.74674 2.05404 9.59049 2.43164 9.29102C2.80924 8.99154 2.99805 8.5293 2.99805 7.9043V4.91602C2.99805 3.9069 3.34961 3.1224 4.05273 2.5625C4.75586 2.0026 5.69987 1.72266 6.88477 1.72266V3.08008C5.38737 3.11914 4.63867 3.76693 4.63867 5.02344V7.9043C4.63867 9.30404 3.91276 10.1309 2.46094 10.3848V10.502C3.91276 10.7559 4.63867 11.5827 4.63867 12.9824V15.8828ZM12.9981 16.18C12.1581 16.18 11.4048 16.04 10.7381 15.76C10.0715 15.4667 9.54479 15.0667 9.15813 14.56C8.77146 14.04 8.55813 13.4467 8.51813 12.78H10.3981C10.4515 13.3267 10.7048 13.7733 11.1581 14.12C11.6248 14.4667 12.2315 14.64 12.9781 14.64C13.6715 14.64 14.2181 14.4867 14.6181 14.18C15.0181 13.8733 15.2181 13.4867 15.2181 13.02C15.2181 12.54 15.0048 12.1867 14.5781 11.96C14.1515 11.72 13.4915 11.4867 12.5981 11.26C11.7848 11.0467 11.1181 10.8333 10.5981 10.62C10.0915 10.3933 9.65146 10.0667 9.27813 9.64C8.91813 9.2 8.73813 8.62667 8.73813 7.92C8.73813 7.36 8.90479 6.84667 9.23813 6.38C9.57146 5.91333 10.0448 5.54667 10.6581 5.28C11.2715 5 11.9715 4.86 12.7581 4.86C13.9715 4.86 14.9515 5.16667 15.6981 5.78C16.4448 6.39333 16.8448 7.23333 16.8981 8.3H15.0781C15.0381 7.72667 14.8048 7.26667 14.3781 6.92C13.9648 6.57333 13.4048 6.4 12.6981 6.4C12.0448 6.4 11.5248 6.54 11.1381 6.82C10.7515 7.1 10.5581 7.46667 10.5581 7.92C10.5581 8.28 10.6715 8.58 10.8981 8.82C11.1381 9.04667 11.4315 9.23333 11.7781 9.38C12.1381 9.51333 12.6315 9.66667 13.2581 9.84C14.0448 10.0533 14.6848 10.2667 15.1781 10.48C15.6715 10.68 16.0915 10.9867 16.4381 11.4C16.7981 11.8133 16.9848 12.3533 16.9981 13.02C16.9981 13.62 16.8315 14.16 16.4981 14.64C16.1648 15.12 15.6915 15.5 15.0781 15.78C14.4781 16.0467 13.7848 16.18 12.9981 16.18ZM24.3473 16.18C23.3207 16.18 22.3873 15.9467 21.5473 15.48C20.7207 15.0133 20.0673 14.3533 19.5873 13.5C19.1207 12.6333 18.8873 11.6333 18.8873 10.5C18.8873 9.38 19.1273 8.39333 19.6073 7.54C20.1007 6.67333 20.7673 6.01333 21.6073 5.56C22.4473 5.09333 23.3873 4.86 24.4273 4.86C25.4673 4.86 26.4073 5.09333 27.2473 5.56C28.0873 6.01333 28.7473 6.66667 29.2273 7.52C29.7207 8.37333 29.9673 9.36667 29.9673 10.5C29.9673 11.6333 29.714 12.6333 29.2073 13.5C28.714 14.3533 28.0407 15.0133 27.1873 15.48C26.334 15.9467 25.3873 16.18 24.3473 16.18ZM24.3473 14.58C25.0007 14.58 25.614 14.4267 26.1873 14.12C26.7607 13.8133 27.2207 13.3533 27.5673 12.74C27.9273 12.1267 28.1073 11.38 28.1073 10.5C28.1073 9.62 27.934 8.87333 27.5873 8.26C27.2407 7.64667 26.7873 7.19333 26.2273 6.9C25.6673 6.59333 25.0607 6.44 24.4073 6.44C23.7407 6.44 23.1273 6.59333 22.5673 6.9C22.0207 7.19333 21.5807 7.64667 21.2473 8.26C20.914 8.87333 20.7473 9.62 20.7473 10.5C20.7473 11.3933 20.9073 12.1467 21.2273 12.76C21.5607 13.3733 22.0007 13.8333 22.5473 14.14C23.094 14.4333 23.694 14.58 24.3473 14.58ZM36.8203 6.54H34.5203V16H32.7003V6.54H31.2803V5.04H32.7003V4.26C32.7003 3.03333 33.0136 2.14 33.6403 1.58C34.2803 1.00667 35.3003 0.719999 36.7003 0.719999V2.24C35.9003 2.24 35.3336 2.4 35.0003 2.72C34.6803 3.02667 34.5203 3.54 34.5203 4.26V5.04H36.8203V6.54ZM41.1623 6.54V13C41.1623 13.5333 41.2757 13.9133 41.5023 14.14C41.729 14.3533 42.1223 14.46 42.6823 14.46H44.0223V16H42.3823C41.369 16 40.609 15.7667 40.1023 15.3C39.5957 14.8333 39.3423 14.0667 39.3423 13V6.54H37.9223V5.04H39.3423V2.28H41.1623V5.04H44.0223V6.54H41.1623ZM56.2875 10.22C56.2875 10.6333 56.2608 11.0067 56.2075 11.34H47.7875C47.8542 12.22 48.1808 12.9267 48.7675 13.46C49.3542 13.9933 50.0742 14.26 50.9275 14.26C52.1542 14.26 53.0208 13.7467 53.5275 12.72H55.9875C55.6542 13.7333 55.0475 14.5667 54.1675 15.22C53.3008 15.86 52.2208 16.18 50.9275 16.18C49.8742 16.18 48.9275 15.9467 48.0875 15.48C47.2608 15 46.6075 14.3333 46.1275 13.48C45.6608 12.6133 45.4275 11.6133 45.4275 10.48C45.4275 9.34667 45.6542 8.35333 46.1075 7.5C46.5742 6.63333 47.2208 5.96667 48.0475 5.5C48.8875 5.03333 49.8475 4.8 50.9275 4.8C51.9675 4.8 52.8942 5.02667 53.7075 5.48C54.5208 5.93333 55.1542 6.57333 55.6075 7.4C56.0608 8.21333 56.2875 9.15333 56.2875 10.22ZM53.9075 9.5C53.8942 8.66 53.5942 7.98667 53.0075 7.48C52.4208 6.97333 51.6942 6.72 50.8275 6.72C50.0408 6.72 49.3675 6.97333 48.8075 7.48C48.2475 7.97333 47.9142 8.64667 47.8075 9.5H53.9075ZM62.7913 13.96L65.9113 4.98H68.3312L64.1313 16H61.4113L57.2313 4.98H59.6712L62.7913 13.96ZM74.8347 16.18C73.7947 16.18 72.8547 15.9467 72.0147 15.48C71.1747 15 70.5147 14.3333 70.0347 13.48C69.5547 12.6133 69.3147 11.6133 69.3147 10.48C69.3147 9.36 69.5614 8.36667 70.0547 7.5C70.548 6.63333 71.2214 5.96667 72.0747 5.5C72.928 5.03333 73.8814 4.8 74.9347 4.8C75.988 4.8 76.9414 5.03333 77.7947 5.5C78.648 5.96667 79.3214 6.63333 79.8147 7.5C80.308 8.36667 80.5547 9.36 80.5547 10.48C80.5547 11.6 80.3014 12.5933 79.7947 13.46C79.288 14.3267 78.5947 15 77.7147 15.48C76.848 15.9467 75.888 16.18 74.8347 16.18ZM74.8347 14.2C75.4214 14.2 75.968 14.06 76.4747 13.78C76.9947 13.5 77.4147 13.08 77.7347 12.52C78.0547 11.96 78.2147 11.28 78.2147 10.48C78.2147 9.68 78.0614 9.00667 77.7547 8.46C77.448 7.9 77.0414 7.48 76.5347 7.2C76.028 6.92 75.4814 6.78 74.8947 6.78C74.308 6.78 73.7614 6.92 73.2547 7.2C72.7614 7.48 72.368 7.9 72.0747 8.46C71.7814 9.00667 71.6347 9.68 71.6347 10.48C71.6347 11.6667 71.9347 12.5867 72.5347 13.24C73.148 13.88 73.9147 14.2 74.8347 14.2ZM85.0886 1.2V16H82.8086V1.2H85.0886ZM91.6797 10.3848C90.2279 10.1309 89.502 9.30404 89.502 7.9043V5.02344C89.502 3.76693 88.763 3.11914 87.2852 3.08008V1.72266C88.4831 1.72266 89.4238 2.00586 90.1074 2.57227C90.7975 3.13867 91.1426 3.91992 91.1426 4.91602V7.9043C91.1426 8.53581 91.3346 9.0013 91.7188 9.30078C92.1029 9.59375 92.7181 9.74674 93.5645 9.75977V11.1367C92.7702 11.1367 92.168 11.2832 91.7578 11.5762C91.3477 11.8626 91.1426 12.3444 91.1426 13.0215V15.9805C91.1426 16.9766 90.8073 17.7513 90.1367 18.3047C89.4727 18.8646 88.5221 19.151 87.2852 19.1641V17.7969C88.0078 17.7839 88.5579 17.6276 88.9355 17.3281C89.3132 17.0286 89.502 16.5469 89.502 15.8828V12.9824C89.502 12.2402 89.681 11.6738 90.0391 11.2832C90.3971 10.8926 90.944 10.6322 91.6797 10.502V10.3848Z" fill="#2D2D2D"/>
</svg>
